<svg width="74" height="40" viewBox="0 0 74 40" fill="none" xmlns="http://www.w3.org/2000/svg">
<path d="M51.906 25.7932C50.8895 26.0261 48.2142 26.1602 48.2142 26.1602L47.8754 27.219C47.8754 27.219 49.2095 27.1061 50.1836 27.2049C50.1836 27.2049 50.5013 27.1696 50.5366 27.5649C50.5507 27.932 50.5084 28.3273 50.5084 28.3273C50.5084 28.3273 50.4872 28.5673 50.1484 28.6237C49.7813 28.6873 47.2684 28.779 47.2684 28.779L46.8589 30.1555C46.8589 30.1555 46.7107 30.4732 47.0495 30.3814C47.3672 30.2967 50.0001 29.8026 50.346 29.8732C50.7131 29.9649 51.1225 30.452 51.0025 30.9037C50.8613 31.4543 48.2354 33.1343 46.6331 33.0143C46.6331 33.0143 45.7931 33.0708 45.0801 31.9343C44.4166 30.8543 45.3342 28.8002 45.3342 28.8002C45.3342 28.8002 44.9178 27.8402 45.2213 27.5226C45.2213 27.5226 45.4048 27.3602 45.9272 27.3179L46.5695 25.9837C46.5695 25.9837 45.8354 26.0332 45.3978 25.4967C44.9883 24.9814 44.9601 24.7485 45.2707 24.6073C45.6025 24.4449 48.6589 23.8873 50.7625 23.9579C50.7625 23.9579 51.4966 23.8873 52.1248 25.1579C52.1178 25.1579 52.4284 25.6732 51.906 25.7932ZM43.9931 30.9179C43.7248 31.5532 43.0119 32.2308 42.1295 31.8073C41.2542 31.3837 39.8636 28.539 39.8636 28.539C39.8636 28.539 39.3342 27.4802 39.2354 27.5014C39.2354 27.5014 39.1225 27.2967 39.0519 28.4543C38.9813 29.612 39.066 31.8637 38.6072 32.2167C38.1695 32.5696 37.6401 32.4284 37.3648 32.012C37.1178 31.6026 37.0119 30.6284 37.146 28.9202C37.3084 27.212 37.7036 25.3908 38.2119 24.819C38.7201 24.2543 39.1295 24.6637 39.2848 24.812C39.2848 24.812 39.9625 25.4261 41.0848 27.2332L41.2825 27.5649C41.2825 27.5649 42.2989 29.2732 42.4048 29.2661C42.4048 29.2661 42.4895 29.3437 42.5601 29.2873C42.666 29.259 42.6236 28.7084 42.6236 28.7084C42.6236 28.7084 42.4119 26.852 41.4872 23.7037C41.4872 23.7037 41.346 23.3084 41.4448 22.9414C41.5366 22.5673 41.9107 22.7437 41.9107 22.7437C41.9107 22.7437 43.3507 23.4637 44.0425 25.8073C44.7272 28.172 44.2613 30.2826 43.9931 30.9179ZM36.9201 24.8967C36.8001 25.1367 36.7295 25.4826 36.1225 25.5743C36.1225 25.5743 30.3131 25.9696 30.0378 26.379C30.0378 26.379 29.8331 26.619 30.1507 26.6896C30.4684 26.7532 31.7813 26.9296 32.4166 26.9649C33.0942 26.972 35.3813 26.9932 36.2001 28.0167C36.2001 28.0167 36.6872 28.5037 36.666 29.6049C36.6448 30.7343 36.4472 31.1296 36.0095 31.539C35.5507 31.9202 31.6119 33.6849 29.0707 30.9743C29.0707 30.9743 27.8989 29.6684 29.4731 28.6802C29.4731 28.6802 30.6095 27.9955 33.4966 28.8002C33.4966 28.8002 34.3719 29.1179 34.3295 29.4355C34.2801 29.7743 33.6095 30.1343 32.6354 30.1132C31.6895 30.0849 30.9978 29.6332 31.1319 29.7037C31.2589 29.7532 30.1154 29.1532 29.7625 29.5626C29.4095 29.9367 29.4942 30.1696 29.8401 30.4026C30.7225 30.9037 34.1319 30.7273 35.1484 29.5979C35.1484 29.5979 35.5507 29.139 34.9366 28.7649C34.3225 28.412 32.5648 28.2002 31.8801 28.1649C31.2236 28.1296 28.7813 28.172 28.4284 27.5226C28.4284 27.5226 28.0754 27.0849 28.4636 25.8426C28.8731 24.5437 31.7178 24.0426 32.946 23.9296C32.946 23.9296 36.3272 23.8096 36.9484 24.5014C36.9413 24.5014 37.026 24.6637 36.9201 24.8967ZM27.3201 32.5132C26.9107 32.8167 26.0425 32.6826 25.7954 32.3437C25.5484 32.0402 25.4636 30.8332 25.5131 28.9414C25.5625 27.0284 25.6048 24.6567 26.0142 24.2826C26.4519 23.9014 26.7201 24.2332 26.8895 24.4943C27.0731 24.7484 27.2919 25.0308 27.3413 25.6308C27.3836 26.2308 27.5248 29.379 27.5248 29.379C27.5248 29.379 27.7084 32.2167 27.3201 32.5132ZM28.2025 22.3626C27.0095 22.7579 26.1907 22.6237 25.4989 22.3273C25.1954 22.8567 25.0189 23.019 24.786 23.0543C24.4472 23.0896 24.1436 22.5461 24.0872 22.3696C24.0307 22.2355 23.8684 22.0096 24.066 21.4732C23.3884 20.8661 23.3389 20.0473 23.4519 19.4967C23.6213 18.8614 24.7648 16.4473 28.2448 16.1649C28.2448 16.1649 29.946 16.0379 30.2354 16.9485H30.2848C30.2848 16.9485 31.9366 16.9555 31.9013 18.4237C31.8801 19.899 30.066 21.7343 28.2025 22.3626ZM24.9554 19.0943C24.6025 19.659 24.5884 19.9979 24.7507 20.2308C25.1531 19.6167 25.8872 18.6496 26.9672 17.9155C26.1342 17.9861 25.4354 18.3461 24.9554 19.0943ZM29.7625 18.1485C28.6684 18.3108 26.9742 19.779 26.1695 20.979C27.4048 21.2049 29.586 21.1202 30.5531 19.1508C30.546 19.1508 31.0119 17.9296 29.7625 18.1485ZM59.466 29.5202C58.8095 30.6637 56.9672 33.0496 54.5107 32.492C53.6989 34.4614 53.0213 36.4449 52.6331 39.4237C52.6331 39.4237 52.5484 40.0026 52.0684 39.7979C51.5954 39.6284 50.8048 38.8379 50.6495 37.7437C50.4801 36.3037 51.1225 33.8684 52.4283 31.0802C52.0472 30.459 51.786 29.5696 52.0119 28.3061C52.0119 28.3061 52.3437 25.9626 54.6942 23.8449C54.6942 23.8449 54.9766 23.5979 55.1389 23.6755C55.3225 23.7532 55.2378 24.5155 55.0895 24.8826C54.9413 25.2496 53.8895 27.0708 53.8895 27.0708C53.8895 27.0708 53.2331 28.299 53.4166 29.2661C54.6519 27.3673 57.4613 23.5343 59.2048 24.7414C59.7907 25.1579 60.0589 26.0684 60.0589 27.0496C60.0519 27.9179 59.8472 28.8355 59.466 29.5202ZM58.9578 26.5132C58.9578 26.5132 58.8589 25.7579 58.1248 26.5908C57.4895 27.2896 56.346 28.6096 55.4213 30.3955C56.3884 30.2896 57.3201 29.7602 57.6025 29.492C58.0613 29.0826 59.1272 27.9814 58.9578 26.5132ZM24.6872 27.4732C24.5531 29.1814 23.8966 32.0543 19.2448 33.4732C16.1742 34.3979 13.2731 33.9532 11.6919 33.5508C11.6566 34.179 11.586 34.4473 11.4872 34.5532C11.3531 34.6873 10.3507 35.2661 9.80012 34.4473C9.55306 34.059 9.426 33.3532 9.35541 32.7249C5.79777 31.0873 4.16012 28.7296 4.09659 28.6237C4.01894 28.5461 3.20718 27.699 4.01894 26.6614C4.7813 25.7226 7.27306 24.7837 9.51777 24.4026C9.59541 22.4826 9.8213 21.0355 10.0895 20.372C10.4142 19.6026 10.8236 20.2943 11.1766 20.8167C11.4731 21.2049 11.6495 22.8779 11.6637 24.212C13.1319 24.1414 14.0001 24.2473 15.6378 24.5437C17.7695 24.932 19.1954 26.019 19.0684 27.2543C18.9766 28.4685 17.8613 28.9696 17.4378 29.0049C16.9931 29.0402 16.3013 28.7226 16.3013 28.7226C15.8284 28.4967 16.266 28.299 16.8378 28.052C17.4589 27.7485 17.3178 27.4379 17.3178 27.4379C17.0848 26.7602 14.3178 26.2873 11.5648 26.2873C11.5507 27.8049 11.6284 30.3249 11.6637 31.7932C13.5907 32.1602 15.0307 32.0896 15.0307 32.0896C15.0307 32.0896 22.0613 31.892 22.2731 27.4026C22.4919 22.9061 15.2636 18.5932 9.92012 17.2237C4.58365 15.8261 1.56247 16.8002 1.3013 16.9343C1.01894 17.0755 1.28012 17.1179 1.28012 17.1179C1.28012 17.1179 1.56953 17.1602 2.07071 17.3296C2.60012 17.499 2.19071 17.7743 2.19071 17.7743C1.28012 18.0637 0.256591 17.8802 0.0589435 17.4637C-0.138704 17.0473 0.193062 16.6732 0.574239 16.1367C0.955415 15.572 1.37189 15.5932 1.37189 15.5932C7.97188 13.3061 16.0119 17.4426 16.0119 17.4426C23.5436 21.2614 24.8284 25.7367 24.6872 27.4732ZM4.76718 27.2402C4.01894 27.6073 4.53424 28.1367 4.53424 28.1367C5.93894 29.6473 7.66836 30.5932 9.31306 31.179C9.50365 28.5743 9.47541 27.6567 9.49659 26.3437C6.92718 26.5202 5.44483 26.9296 4.76718 27.2402Z" fill="white"/>
<path d="M73.4425 26.7035V27.6352C73.4425 27.8399 73.2802 28.0023 73.0755 28.0023H68.6355C68.6355 28.2352 68.6425 28.4399 68.6425 28.6305C68.6425 30.007 68.5861 31.1294 68.452 32.3929C68.4308 32.5835 68.2755 32.7247 68.092 32.7247H67.132C67.0331 32.7247 66.9414 32.6823 66.8778 32.6117C66.8143 32.5411 66.779 32.4423 66.7931 32.3435C66.9272 31.087 66.9908 29.9788 66.9908 28.6305C66.9908 28.4329 66.9908 28.2282 66.9837 28.0023H62.5931C62.3884 28.0023 62.2261 27.8399 62.2261 27.6352V26.7035C62.2261 26.4988 62.3884 26.3364 62.5931 26.3364H66.9202C66.8284 24.8188 66.6449 23.3576 66.3484 21.8752C66.3343 21.7835 66.3555 21.6917 66.412 21.6211C66.4684 21.5505 66.5531 21.5082 66.6449 21.5082H67.6825C67.8449 21.5082 67.979 21.6211 68.0143 21.7835C68.3037 23.3152 68.4873 24.8047 68.579 26.3364H73.0755C73.2731 26.3364 73.4425 26.5058 73.4425 26.7035Z" fill="white"/>
<path d="M67.3999 19.3129C65.1058 13.6729 61.2305 8.86588 56.1905 5.40706C51.0305 1.87059 44.9811 0 38.6987 0C28.3081 0 18.6658 5.16 12.9128 13.8071C12.8493 13.8988 12.8352 14.0188 12.8705 14.1247C12.9058 14.2376 12.9905 14.3153 13.0964 14.3506L13.9011 14.6259C13.9505 14.64 13.9999 14.6471 14.0422 14.6471C14.1905 14.6471 14.3316 14.5694 14.4164 14.4494C17.0564 10.5671 20.6281 7.34118 24.7505 5.11059C29.0069 2.80941 33.8281 1.58824 38.6916 1.58824C44.5716 1.58824 50.2399 3.32471 55.0963 6.6C59.8328 9.79765 63.5105 14.2659 65.734 19.5106C65.7975 19.6659 65.9528 19.7718 66.1222 19.7718H67.0822C67.1952 19.7718 67.301 19.7153 67.3575 19.6235C67.4281 19.5318 67.4422 19.4188 67.3999 19.3129ZM14.0422 14.4071C14.0211 14.4071 13.9999 14.4 13.9787 14.3929C13.9999 14.4 14.0211 14.4071 14.0422 14.4071C14.0493 14.4071 14.0564 14.4071 14.0564 14.4071C14.0564 14.4071 14.0493 14.4071 14.0422 14.4071ZM65.9246 19.6447C65.9458 19.6588 65.9669 19.6729 65.9881 19.68C65.9669 19.6659 65.9458 19.6588 65.9246 19.6447Z" fill="url(#paint0_radial_3634_1487)"/>
<defs>
<radialGradient id="paint0_radial_3634_1487" cx="0" cy="0" r="1" gradientUnits="userSpaceOnUse" gradientTransform="translate(66.498 19.7362) scale(53.6558 53.6558)">
<stop offset="0.00708621" stop-color="white"/>
<stop offset="0.0300991" stop-color="#CBFFFF"/>
<stop offset="0.0570069" stop-color="#96FFFF"/>
<stop offset="0.0842769" stop-color="#68FFFF"/>
<stop offset="0.1113" stop-color="#43FFFF"/>
<stop offset="0.1382" stop-color="#25FFFF"/>
<stop offset="0.1647" stop-color="#11FFFF"/>
<stop offset="0.1908" stop-color="#04FFFF"/>
<stop offset="0.2159" stop-color="#00FFFF"/>
<stop offset="1" stop-color="#0000FF" stop-opacity="0"/>
</radialGradient>
</defs>
</svg>
