<svg width="20" height="15" viewBox="0 0 20 15" fill="none" xmlns="http://www.w3.org/2000/svg">
<path d="M12.9733 8.88C13.1602 8.69683 13.309 8.47842 13.411 8.23741C13.5129 7.99639 13.5661 7.73756 13.5674 7.47586C13.5688 7.21416 13.5182 6.9548 13.4187 6.71277C13.3191 6.47073 13.1726 6.25084 12.9875 6.06579C12.8025 5.88074 12.5826 5.73421 12.3406 5.63467C12.0985 5.53513 11.8392 5.48456 11.5775 5.48588C11.3158 5.48721 11.0569 5.54039 10.8159 5.64237C10.5749 5.74435 10.3565 5.89309 10.1733 6.08C9.80821 6.45258 9.60487 6.9542 9.6075 7.47586C9.61014 7.99752 9.81853 8.49706 10.1874 8.86593C10.5563 9.2348 11.0558 9.4432 11.5775 9.44583C12.0991 9.44847 12.6008 9.24513 12.9733 8.88ZM4.79867 8.88C4.98558 8.69683 5.13432 8.47842 5.2363 8.23741C5.33827 7.99639 5.39146 7.73756 5.39278 7.47586C5.3941 7.21416 5.34353 6.9548 5.244 6.71277C5.14446 6.47073 4.99793 6.25084 4.81288 6.06579C4.62783 5.88074 4.40793 5.73421 4.1659 5.63467C3.92387 5.53513 3.66451 5.48456 3.40281 5.48588C3.14111 5.48721 2.88227 5.54039 2.64126 5.64237C2.40024 5.74435 2.18184 5.89309 1.99867 6.08C1.63354 6.45258 1.4302 6.9542 1.43283 7.47586C1.43547 7.99752 1.64386 8.49706 2.01274 8.86593C2.38161 9.2348 2.88115 9.4432 3.40281 9.44583C3.92447 9.44847 4.42609 9.24513 4.79867 8.88ZM8.914 2.00667C8.73104 1.81924 8.51271 1.66998 8.27164 1.56756C8.03058 1.46513 7.77159 1.41157 7.50967 1.40997C7.24775 1.40837 6.98813 1.45878 6.74583 1.55826C6.50354 1.65774 6.2834 1.80432 6.09817 1.9895C5.91294 2.17468 5.76631 2.39479 5.66677 2.63706C5.56723 2.87933 5.51677 3.13895 5.5183 3.40086C5.51984 3.66278 5.57334 3.92179 5.67571 4.16287C5.77808 4.40396 5.92728 4.62233 6.11467 4.80533C6.4873 5.16925 6.98836 5.37162 7.5092 5.36857C8.03004 5.36551 8.52869 5.15729 8.89704 4.78903C9.26538 4.42078 9.47372 3.92218 9.4769 3.40133C9.48008 2.88049 9.27783 2.37939 8.914 2.00667ZM8.914 10.1813C8.73104 9.9939 8.51271 9.84465 8.27164 9.74222C8.03058 9.6398 7.77159 9.58623 7.50967 9.58464C7.24775 9.58304 6.98813 9.63344 6.74583 9.73292C6.50354 9.8324 6.2834 9.97898 6.09817 10.1642C5.91294 10.3494 5.76631 10.5695 5.66677 10.8117C5.56723 11.054 5.51677 11.3136 5.5183 11.5755C5.51984 11.8374 5.57334 12.0965 5.67571 12.3375C5.77808 12.5786 5.92728 12.797 6.11467 12.98C6.4873 13.3439 6.98836 13.5463 7.5092 13.5432C8.03004 13.5402 8.52869 13.332 8.89704 12.9637C9.26538 12.5954 9.47372 12.0968 9.4769 11.576C9.48008 11.0552 9.27783 10.5541 8.914 10.1813ZM7.88467 7.09533C7.83231 7.04294 7.77015 7.00136 7.70173 6.97299C7.63331 6.94462 7.55997 6.93 7.4859 6.92997C7.41183 6.92993 7.33848 6.94449 7.27004 6.97281C7.20159 7.00113 7.1394 7.04265 7.087 7.095C7.0346 7.14735 6.99303 7.20952 6.96466 7.27794C6.93628 7.34636 6.92166 7.41969 6.92163 7.49376C6.9216 7.56783 6.93616 7.64119 6.96448 7.70963C6.99279 7.77807 7.03431 7.84027 7.08667 7.89267C7.1924 7.99849 7.33584 8.05797 7.48543 8.05804C7.63502 8.0581 7.77851 7.99873 7.88433 7.893C7.99015 7.78727 8.04964 7.64383 8.0497 7.49424C8.04976 7.34464 7.9904 7.20115 7.88467 7.09533ZM19.9247 6.666C17.7047 11.2747 14.4813 13.2847 12.168 14.1593C10.4547 14.8067 8.99333 14.9447 8.202 14.9647C7.97 14.986 7.73667 15 7.50067 15C3.358 15 0 11.642 0 7.5C0 3.358 3.358 0 7.5 0C11.6427 0 15 3.358 15 7.5C15.002 9.21181 14.4151 10.8722 13.338 12.2027C15.226 11.128 17.234 9.28133 18.7633 6.10733C18.8429 5.96277 18.9749 5.8542 19.132 5.80392C19.2892 5.75365 19.4597 5.7655 19.6084 5.83704C19.7571 5.90858 19.8728 6.03437 19.9316 6.18855C19.9904 6.34273 19.9879 6.51359 19.9247 6.666Z" fill="white"/>
</svg>
