<svg width="86" height="48" viewBox="0 0 86 48" fill="none" xmlns="http://www.w3.org/2000/svg">
<path d="M60.6442 30.8862C59.4614 31.1573 56.3481 31.3133 56.3481 31.3133L55.9539 32.5455C55.9539 32.5455 57.5064 32.414 58.6399 32.529C58.6399 32.529 59.0096 32.488 59.0506 32.948C59.0671 33.3751 59.0178 33.8351 59.0178 33.8351C59.0178 33.8351 58.9931 34.1144 58.5989 34.1801C58.1717 34.254 55.2474 34.3608 55.2474 34.3608L54.771 35.9626C54.771 35.9626 54.5985 36.3323 54.9928 36.2255C55.3624 36.1269 58.4264 35.5519 58.8289 35.634C59.256 35.7408 59.7324 36.3076 59.5928 36.8333C59.4285 37.474 56.3728 39.429 54.5081 39.2894C54.5081 39.2894 53.5306 39.3551 52.701 38.0326C51.9289 36.7758 52.9967 34.3855 52.9967 34.3855C52.9967 34.3855 52.5121 33.2683 52.8653 32.8987C52.8653 32.8987 53.0789 32.7098 53.6867 32.6605L54.4342 31.108C54.4342 31.108 53.5799 31.1655 53.0706 30.5412C52.5942 29.9415 52.5614 29.6705 52.9228 29.5062C53.3089 29.3173 56.8656 28.6683 59.3135 28.7505C59.3135 28.7505 60.1678 28.6683 60.8989 30.1469C60.8906 30.1469 61.2521 30.7465 60.6442 30.8862ZM51.436 36.8498C51.1239 37.589 50.2942 38.3776 49.2674 37.8848C48.2489 37.3919 46.6306 34.0815 46.6306 34.0815C46.6306 34.0815 46.0146 32.8494 45.8996 32.874C45.8996 32.874 45.7681 32.6358 45.686 33.983C45.6039 35.3301 45.7024 37.9505 45.1685 38.3612C44.6592 38.7719 44.0431 38.6076 43.7228 38.123C43.4353 37.6465 43.3121 36.513 43.4681 34.5251C43.6571 32.5373 44.1171 30.418 44.7085 29.7526C45.2999 29.0955 45.7764 29.5719 45.9571 29.7444C45.9571 29.7444 46.7456 30.459 48.0517 32.5619L48.2817 32.948C48.2817 32.948 49.4646 34.9358 49.5878 34.9276C49.5878 34.9276 49.6864 35.018 49.7685 34.9523C49.8917 34.9194 49.8424 34.2787 49.8424 34.2787C49.8424 34.2787 49.596 32.1183 48.5199 28.4548C48.5199 28.4548 48.3556 27.9948 48.4706 27.5676C48.5774 27.1323 49.0128 27.3376 49.0128 27.3376C49.0128 27.3376 50.6885 28.1755 51.4935 30.9026C52.2903 33.6544 51.7481 36.1105 51.436 36.8498ZM43.2053 29.843C43.0656 30.1223 42.9835 30.5248 42.2771 30.6315C42.2771 30.6315 35.5167 31.0915 35.1964 31.568C35.1964 31.568 34.9581 31.8473 35.3278 31.9294C35.6974 32.0033 37.2253 32.2087 37.9646 32.2498C38.7531 32.258 41.4146 32.2826 42.3674 33.4737C42.3674 33.4737 42.9342 34.0405 42.9096 35.3219C42.8849 36.6362 42.6549 37.0962 42.1456 37.5726C41.6117 38.0162 37.0281 40.0698 34.071 36.9155C34.071 36.9155 32.7074 35.3958 34.5392 34.2458C34.5392 34.2458 35.8617 33.449 39.2214 34.3855C39.2214 34.3855 40.2399 34.7551 40.1906 35.1248C40.1331 35.519 39.3528 35.938 38.2192 35.9133C37.1185 35.8805 36.3135 35.3548 36.4696 35.4369C36.6174 35.4944 35.2867 34.7962 34.876 35.2726C34.4653 35.708 34.5639 35.979 34.9664 36.2501C35.9931 36.8333 39.9606 36.628 41.1435 35.3137C41.1435 35.3137 41.6117 34.7798 40.8971 34.3444C40.1824 33.9337 38.1371 33.6873 37.3403 33.6462C36.5764 33.6051 33.7342 33.6544 33.3235 32.8987C33.3235 32.8987 32.9128 32.3894 33.3646 30.9437C33.841 29.4323 37.1514 28.849 38.5806 28.7176C38.5806 28.7176 42.5153 28.578 43.2381 29.383C43.2299 29.383 43.3285 29.5719 43.2053 29.843ZM32.0339 38.7062C31.5574 39.0594 30.5471 38.9033 30.2596 38.509C29.9721 38.1558 29.8735 36.7512 29.931 34.5498C29.9885 32.3237 30.0378 29.5637 30.5142 29.1283C31.0235 28.6848 31.3356 29.0708 31.5328 29.3748C31.7464 29.6705 32.001 29.999 32.0585 30.6973C32.1078 31.3955 32.2721 35.059 32.2721 35.059C32.2721 35.059 32.4856 38.3612 32.0339 38.7062ZM33.0606 26.894C31.6724 27.354 30.7196 27.198 29.9146 26.853C29.5614 27.469 29.356 27.658 29.0849 27.699C28.6906 27.7401 28.3374 27.1076 28.2717 26.9023C28.206 26.7462 28.0171 26.4833 28.2471 25.859C27.4585 25.1526 27.401 24.1998 27.5324 23.559C27.7296 22.8198 29.0603 20.0105 33.1099 19.6819C33.1099 19.6819 35.0896 19.534 35.4264 20.5937H35.4839C35.4839 20.5937 37.406 20.6019 37.3649 22.3105C37.3403 24.0273 35.2292 26.163 33.0606 26.894ZM29.2821 23.0908C28.8714 23.748 28.8549 24.1423 29.0439 24.4133C29.5121 23.6987 30.3664 22.5733 31.6231 21.719C30.6539 21.8012 29.8406 22.2201 29.2821 23.0908ZM34.876 21.9901C33.6028 22.179 31.6314 23.8876 30.6949 25.284C32.1324 25.5469 34.6706 25.4483 35.796 23.1565C35.7878 23.1565 36.3299 21.7355 34.876 21.9901ZM69.4417 35.2233C68.6778 36.554 66.5339 39.3305 63.6753 38.6815C62.7306 40.9733 61.9421 43.2815 61.4903 46.748C61.4903 46.748 61.3917 47.4215 60.8331 47.1833C60.2828 46.9862 59.3628 46.0662 59.1821 44.793C58.9849 43.1173 59.7324 40.2833 61.2521 37.0387C60.8085 36.3158 60.5046 35.2808 60.7674 33.8105C60.7674 33.8105 61.1535 31.0833 63.8889 28.619C63.8889 28.619 64.2174 28.3315 64.4064 28.4219C64.6199 28.5123 64.5214 29.3994 64.3489 29.8265C64.1764 30.2537 62.9524 32.373 62.9524 32.373C62.9524 32.373 62.1885 33.8023 62.4021 34.9276C63.8396 32.718 67.1089 28.2576 69.1378 29.6623C69.8196 30.1469 70.1317 31.2065 70.1317 32.3483C70.1235 33.3587 69.8853 34.4265 69.4417 35.2233ZM68.8503 31.724C68.8503 31.724 68.7353 30.8451 67.881 31.8144C67.1417 32.6276 65.811 34.1637 64.7349 36.2419C65.8603 36.1187 66.9446 35.5026 67.2731 35.1905C67.8071 34.714 69.0474 33.4326 68.8503 31.724ZM28.9699 32.8412C28.8139 34.829 28.0499 38.1723 22.6367 39.8233C19.0635 40.8994 15.6874 40.3819 13.8474 39.9137C13.8064 40.6448 13.7242 40.9569 13.6092 41.0801C13.4531 41.2362 12.2867 41.9098 11.646 40.9569C11.3585 40.5051 11.2106 39.6837 11.1285 38.9526C6.98851 37.0469 5.08279 34.3033 5.00886 34.1801C4.91851 34.0898 3.97386 33.104 4.91851 31.8965C5.80565 30.804 8.70529 29.7115 11.3174 29.268C11.4078 27.0337 11.6707 25.3498 11.9828 24.5776C12.3607 23.6823 12.8371 24.4873 13.2478 25.0951C13.5928 25.5469 13.7982 27.4937 13.8146 29.0462C15.5231 28.964 16.5335 29.0873 18.4392 29.4323C20.9199 29.884 22.5792 31.149 22.4314 32.5865C22.3246 33.9994 21.0267 34.5826 20.5339 34.6237C20.0164 34.6648 19.2114 34.2951 19.2114 34.2951C18.661 34.0323 19.1703 33.8023 19.8356 33.5148C20.5585 33.1615 20.3942 32.8001 20.3942 32.8001C20.1231 32.0115 16.9031 31.4612 13.6996 31.4612C13.6831 33.2273 13.7735 36.1598 13.8146 37.8683C16.0571 38.2955 17.7328 38.2133 17.7328 38.2133C17.7328 38.2133 25.9142 37.9833 26.1606 32.759C26.4153 27.5265 18.0039 22.5076 11.7856 20.914C5.57565 19.2876 2.05993 20.4212 1.75601 20.5773C1.42743 20.7415 1.73136 20.7908 1.73136 20.7908C1.73136 20.7908 2.06815 20.8401 2.65136 21.0373C3.26743 21.2344 2.79101 21.5548 2.79101 21.5548C1.73136 21.8915 0.540291 21.678 0.310291 21.1933C0.0802912 20.7087 0.466364 20.2733 0.909935 19.649C1.35351 18.9919 1.83815 19.0165 1.83815 19.0165C9.51851 16.3551 18.8746 21.1687 18.8746 21.1687C27.6392 25.6126 29.1342 30.8205 28.9699 32.8412ZM5.78922 32.5701C4.91851 32.9973 5.51815 33.6133 5.51815 33.6133C7.15279 35.3712 9.16529 36.4719 11.0792 37.1537C11.301 34.1226 11.2681 33.0548 11.2928 31.5269C8.30279 31.7323 6.57779 32.2087 5.78922 32.5701Z" fill="white"/>
<path d="M85.7058 31.9456V33.0299C85.7058 33.2681 85.5169 33.457 85.2787 33.457H80.1119C80.1119 33.7281 80.1201 33.9663 80.1201 34.1881C80.1201 35.7899 80.0544 37.096 79.8983 38.5663C79.8737 38.7881 79.693 38.9524 79.4794 38.9524H78.3622C78.2472 38.9524 78.1405 38.9031 78.0665 38.821C77.9926 38.7388 77.9515 38.6238 77.968 38.5088C78.124 37.0467 78.198 35.757 78.198 34.1881C78.198 33.9581 78.198 33.7199 78.1898 33.457H73.0805C72.8422 33.457 72.6533 33.2681 72.6533 33.0299V31.9456C72.6533 31.7074 72.8422 31.5185 73.0805 31.5185H78.1158C78.009 29.7524 77.7955 28.052 77.4505 26.327C77.434 26.2203 77.4587 26.1135 77.5244 26.0313C77.5901 25.9492 77.6887 25.8999 77.7955 25.8999H79.003C79.1919 25.8999 79.348 26.0313 79.389 26.2203C79.7258 28.0028 79.9394 29.736 80.0462 31.5185H85.2787C85.5087 31.5185 85.7058 31.7156 85.7058 31.9456Z" fill="white"/>
<path d="M78.6746 23.3454C76.005 16.7822 71.4953 11.1882 65.6303 7.16324C59.6257 3.04788 52.5861 0.871094 45.2753 0.871094C33.1839 0.871094 21.9632 6.87574 15.2686 16.9382C15.1946 17.045 15.1782 17.1847 15.2193 17.3079C15.2603 17.4393 15.3589 17.5297 15.4821 17.5707L16.4186 17.8911C16.4761 17.9075 16.5336 17.9157 16.5828 17.9157C16.7553 17.9157 16.9196 17.8254 17.0182 17.6857C20.0903 13.1679 24.2468 9.41395 29.0439 6.81824C33.9971 4.14038 39.6075 2.71931 45.2671 2.71931C52.1096 2.71931 58.7057 4.74002 64.3571 8.55145C69.8689 12.2725 74.1485 17.4722 76.736 23.5754C76.81 23.7561 76.9907 23.8793 77.1878 23.8793H78.305C78.4364 23.8793 78.5596 23.8136 78.6253 23.7068C78.7075 23.6 78.7239 23.4686 78.6746 23.3454ZM16.5828 17.6364C16.5582 17.6364 16.5336 17.6282 16.5089 17.62C16.5336 17.6282 16.5582 17.6364 16.5828 17.6364C16.5911 17.6364 16.5993 17.6364 16.5993 17.6364C16.5993 17.6364 16.5911 17.6364 16.5828 17.6364ZM76.9578 23.7314C76.9825 23.7479 77.0071 23.7643 77.0318 23.7725C77.0071 23.7561 76.9825 23.7479 76.9578 23.7314Z" fill="url(#paint0_radial_3532_1766)"/>
<defs>
<radialGradient id="paint0_radial_3532_1766" cx="0" cy="0" r="1" gradientUnits="userSpaceOnUse" gradientTransform="translate(77.6252 23.8379) scale(62.4388 62.4388)">
<stop offset="0.00708621" stop-color="white"/>
<stop offset="0.0300991" stop-color="#CBFFFF"/>
<stop offset="0.0570069" stop-color="#96FFFF"/>
<stop offset="0.0842769" stop-color="#68FFFF"/>
<stop offset="0.1113" stop-color="#43FFFF"/>
<stop offset="0.1382" stop-color="#25FFFF"/>
<stop offset="0.1647" stop-color="#11FFFF"/>
<stop offset="0.1908" stop-color="#04FFFF"/>
<stop offset="0.2159" stop-color="#00FFFF"/>
<stop offset="1" stop-color="#0000FF" stop-opacity="0"/>
</radialGradient>
</defs>
</svg>
