<svg width="17" height="17" viewBox="0 0 17 17" fill="none" xmlns="http://www.w3.org/2000/svg">
<path d="M15.0667 6.56667H10.4333V1.93333C10.4333 1.42058 10.2296 0.928831 9.86707 0.56626C9.5045 0.20369 9.01275 0 8.5 0C7.98725 0 7.4955 0.20369 7.13293 0.56626C6.77036 0.928831 6.56667 1.42058 6.56667 1.93333V6.56667H1.93333C1.42058 6.56667 0.928831 6.77036 0.56626 7.13293C0.20369 7.4955 0 7.98725 0 8.5C0 9.01275 0.20369 9.5045 0.56626 9.86707C0.928831 10.2296 1.42058 10.4333 1.93333 10.4333H6.56667V15.0667C6.56667 15.5794 6.77036 16.0712 7.13293 16.4337C7.4955 16.7963 7.98725 17 8.5 17C9.01275 17 9.5045 16.7963 9.86707 16.4337C10.2296 16.0712 10.4333 15.5794 10.4333 15.0667V10.4333H15.0667C15.5794 10.4333 16.0712 10.2296 16.4337 9.86707C16.7963 9.5045 17 9.01275 17 8.5C17 7.98725 16.7963 7.4955 16.4337 7.13293C16.0712 6.77036 15.5794 6.56667 15.0667 6.56667Z" fill="white"/>
</svg>
